<svg height="50" width="500" version="1.1" id="Endmill" xmlns="http://www.w3.org/2000/svg" xmlns:xlink="http://www.w3.org/1999/xlink" >
	<defs>
		<linearGradient id="shadow1" x1="0%" y1="0%" x2="0%" y2="100%">
			<stop offset="0%" style="stop-opacity:0" />
			<stop offset="100%" style="stop-color:#000;stop-opacity:0.2" /> 
		</linearGradient>
		<linearGradient id="shadow2" x1="0%" y1="0%" x2="0%" y2="100%">
			<stop offset="0%" style="stop-color:#000;stop-opacity:0.2" />
			<stop offset="100%" style="stop-opacity:0" /> 
		</linearGradient>
		<linearGradient id="shadow3" x1="100%" y1="0%" x2="0%" y2="0%">
			<stop offset="0%" style="stop-color:#000;stop-opacity:0.4" />
			<stop offset="100%" style="stop-opacity:0" /> 
		</linearGradient>
	</defs>
	
	<path d="M300 0 L500 0 L500 50 L 300 50 Z" style="fill:#456" />
	
	<path d="M 250 0 c 40 0 50 50 100 50 L 400 50 c -50 0 -50 -50 -100 -50" fill="url(#shadow3)"/>
	<path d="M 300 0 c 40 0 50 50 100 50 L 450 50 c -50 0 -50 -50 -100 -50" fill="url(#shadow3)"/>
	<path d="M 350 0 c 40 0 50 50 100 50 L 500 50 c -50 0 -50 -50 -100 -50" fill="url(#shadow3)"/>
	<path d="M 400 0 c 40 0 50 50 100 50 L 550 50 c -50 0 -50 -50 -100 -50" fill="url(#shadow3)"/>
	<path d="M 450 0 c 40 0 50 50 100 50 L 600 50 c -50 0 -50 -50 -100 -50" fill="url(#shadow3)"/>

	<path d="M 290 0 c 40 0 50 50 100 50 L 400 50 c -50 0 -50 -50 -100 -50" fill="#456"/>
	<path d="M 340 0 c 40 0 50 50 100 50 L 450 50 c -50 0 -50 -50 -100 -50" fill="#456"/>
	<path d="M 390 0 c 40 0 50 50 100 50 L 500 50 c -50 0 -50 -50 -100 -50" fill="#456"/>
	<path d="M 440 0 c 40 0 50 50 100 50 L 550 50 c -50 0 -50 -50 -100 -50" fill="#456"/>
	<path d="M 490 0 c 40 0 50 50 100 50 L 600 50 c -50 0 -50 -50 -100 -50" fill="#456"/>

	<path d="M0 0 L300 0 L300 50 L0 50" style="fill:#EEE" />
	<path d="M300 0 L320 0 L320 50 L 300 50" style="fill:#456" />

	<path d="M0 20 L500 20 L500 30 L0 30" fill="url(#shadow1)" />
	<path d="M0 30 L500 30 L500 50 L0 50" fill="url(#shadow2)" />
	<path d="M0 50 L500 50 L500 50 L0 50" fill="url(#shadow1)" />

</svg>
